<svg width="343" height="76" viewBox="0 0 343 76" fill="none" xmlns="http://www.w3.org/2000/svg">
<path d="M6.464 12.456L19.392 12.84L32.32 12.456C33.0027 12.456 33.6 12.6907 34.112 13.16C34.6667 13.5867 34.944 14.184 34.944 14.952C34.944 15.72 34.6667 16.3387 34.112 16.808C33.6 17.2347 33.0027 17.448 32.32 17.448L19.392 17.064C18.2827 17.064 16.4907 17.1067 14.016 17.192C13.7173 23.464 13.5467 28.52 13.504 32.36C15.7227 32.5307 17.792 32.616 19.712 32.616C21.6747 32.616 23.6587 32.552 25.664 32.424C27.712 32.296 28.9493 32.232 29.376 32.232C29.8453 32.232 30.2933 32.4453 30.72 32.872C31.1467 33.2987 31.36 33.8533 31.36 34.536C31.36 35.2187 31.1467 35.7947 30.72 36.264C30.2933 36.6907 29.7387 36.904 29.056 36.904L20.16 36.584C17.9413 36.584 15.7227 36.6693 13.504 36.84C13.5467 40.4667 13.6533 44.0933 13.824 47.72C13.9947 51.304 14.08 53.48 14.08 54.248C14.08 54.9733 13.7813 55.6773 13.184 56.36C12.6293 57.0427 11.904 57.384 11.008 57.384C10.112 57.384 9.36533 57.0427 8.768 56.36C8.21333 55.6773 7.936 54.9947 7.936 54.312C7.936 53.6293 8.02133 51.2613 8.192 47.208C8.40533 43.1547 8.512 39.2507 8.512 35.496C8.512 31.6987 8.32 25.6827 7.936 17.448H6.464C5.78133 17.448 5.16267 17.2347 4.608 16.808C4.096 16.3387 3.84 15.72 3.84 14.952C3.84 14.184 4.096 13.5867 4.608 13.16C5.16267 12.6907 5.78133 12.456 6.464 12.456ZM56.7605 48.424C57.0592 49.192 57.6778 50.2373 58.6165 51.56C59.5978 52.84 60.0885 53.8853 60.0885 54.696C60.0885 55.5067 59.8752 56.168 59.4485 56.68C59.0218 57.1493 58.4458 57.384 57.7205 57.384C55.9712 57.384 54.4138 55.5707 53.0485 51.944L52.5365 50.536C50.3605 55.1013 47.0965 57.384 42.7445 57.384C40.5685 57.384 38.7552 56.7013 37.3045 55.336C35.8965 53.928 35.1925 52.1787 35.1925 50.088C35.1925 46.8453 36.3018 44.0507 38.5205 41.704C40.7392 39.3573 43.6405 38.0987 47.2245 37.928C46.3712 36.4347 45.4112 35.3253 44.3445 34.6C43.3205 33.832 42.3818 33.384 41.5285 33.256C40.6752 33.128 39.8645 33.064 39.0965 33.064C38.3712 33.0213 37.7952 32.8507 37.3685 32.552C36.9418 32.2533 36.7285 31.6773 36.7285 30.824C36.7285 29.928 37.0698 29.2027 37.7525 28.648C38.4778 28.0933 39.3312 27.816 40.3125 27.816C43.0858 27.816 45.8165 29.2027 48.5045 31.976C51.1925 34.7493 53.5392 39.1013 55.5445 45.032L56.7605 48.424ZM45.6245 41.32C44.0885 41.32 42.7018 41.832 41.4645 42.856C40.2698 43.88 39.6725 45.2027 39.6725 46.824C39.6725 48.4453 40.2058 49.8107 41.2725 50.92C42.3818 51.9867 43.7045 52.52 45.2405 52.52C46.7765 52.52 48.0992 51.9867 49.2085 50.92C50.3178 49.8107 50.8725 48.5093 50.8725 47.016C50.8725 45.9493 50.6805 44.968 50.2965 44.072C49.9125 43.1333 49.6778 42.5573 49.5925 42.344C48.4832 41.6613 47.1605 41.32 45.6245 41.32ZM70.8395 38.696L71.2235 54.312C71.2235 55.208 70.9675 55.9547 70.4555 56.552C69.9435 57.1067 69.2822 57.384 68.4715 57.384C67.6608 57.384 66.9568 57.1067 66.3595 56.552C65.8048 55.9547 65.5275 55.208 65.5275 54.312L65.9755 41.64C65.9755 41.64 65.8262 38.0773 65.5275 30.952C65.5275 30.056 65.8048 29.3093 66.3595 28.712C66.9568 28.1147 67.6608 27.816 68.4715 27.816C69.2822 27.816 69.9435 28.1147 70.4555 28.712C70.9675 29.2667 71.2235 29.9707 71.2235 30.824C71.2235 31.6773 71.2022 32.3173 71.1595 32.744C73.5488 29.4587 76.3008 27.816 79.4155 27.816C83.8955 27.816 86.7755 30.824 88.0555 36.84L90.4875 47.848C90.7435 48.8293 91.2555 49.896 92.0235 51.048C92.8342 52.1573 93.2395 53.16 93.2395 54.056C93.2395 56.2747 92.1728 57.384 90.0395 57.384C87.9062 57.384 86.5195 55.6987 85.8795 52.328L83.4475 38.952C82.6368 34.6853 80.4395 32.552 76.8555 32.552C75.0208 32.552 73.5915 33.1707 72.5675 34.408C71.5435 35.6453 70.9675 37.0747 70.8395 38.696ZM113.292 32.552C113.079 32.552 110.412 32.3813 105.292 32.04C105.292 32.5947 105.207 34.7067 105.036 38.376C104.865 42.0453 104.78 44.776 104.78 46.568C104.78 48.3173 105.164 49.7893 105.932 50.984C106.743 52.136 107.148 53.1813 107.148 54.12C107.148 55.0587 106.828 55.848 106.188 56.488C105.548 57.0853 104.823 57.384 104.012 57.384C101.879 57.384 100.812 55.6987 100.812 52.328L100.556 39.336C100.556 36.6907 100.492 34.3227 100.364 32.232H98.828C98.2307 32.232 97.74 32.0613 97.356 31.72C96.972 31.336 96.78 30.824 96.78 30.184C96.78 29.544 96.972 29.0533 97.356 28.712C97.74 28.328 98.2307 28.136 98.828 28.136H100.172C100.087 25.9173 100.044 24.232 100.044 23.08C100.044 21.8853 100.321 20.9467 100.876 20.264C101.473 19.5387 102.177 19.176 102.988 19.176C103.799 19.176 104.46 19.5173 104.972 20.2C105.484 20.84 105.74 21.9067 105.74 23.4C105.74 24.8933 105.676 26.536 105.548 28.328L113.292 27.816C114.956 27.816 115.788 28.6053 115.788 30.184C115.788 31.7627 114.956 32.552 113.292 32.552ZM141.511 48.424C141.809 49.192 142.428 50.2373 143.367 51.56C144.348 52.84 144.839 53.8853 144.839 54.696C144.839 55.5067 144.625 56.168 144.199 56.68C143.772 57.1493 143.196 57.384 142.471 57.384C140.721 57.384 139.164 55.5707 137.799 51.944L137.287 50.536C135.111 55.1013 131.847 57.384 127.495 57.384C125.319 57.384 123.505 56.7013 122.055 55.336C120.647 53.928 119.943 52.1787 119.943 50.088C119.943 46.8453 121.052 44.0507 123.271 41.704C125.489 39.3573 128.391 38.0987 131.975 37.928C131.121 36.4347 130.161 35.3253 129.095 34.6C128.071 33.832 127.132 33.384 126.279 33.256C125.425 33.128 124.615 33.064 123.847 33.064C123.121 33.0213 122.545 32.8507 122.119 32.552C121.692 32.2533 121.479 31.6773 121.479 30.824C121.479 29.928 121.82 29.2027 122.503 28.648C123.228 28.0933 124.081 27.816 125.062 27.816C127.836 27.816 130.567 29.2027 133.255 31.976C135.943 34.7493 138.289 39.1013 140.295 45.032L141.511 48.424ZM130.375 41.32C128.839 41.32 127.452 41.832 126.215 42.856C125.02 43.88 124.423 45.2027 124.423 46.824C124.423 48.4453 124.956 49.8107 126.023 50.92C127.132 51.9867 128.455 52.52 129.991 52.52C131.527 52.52 132.849 51.9867 133.958 50.92C135.068 49.8107 135.623 48.5093 135.623 47.016C135.623 45.9493 135.431 44.968 135.047 44.072C134.663 43.1333 134.428 42.5573 134.343 42.344C133.233 41.6613 131.911 41.32 130.375 41.32ZM155.078 57.384C153.499 57.384 152.219 57.064 151.238 56.424C150.256 55.784 149.766 54.9947 149.766 54.056C149.766 53.0747 150.043 52.3067 150.598 51.752C151.195 51.1547 151.771 50.856 152.326 50.856C152.923 50.856 153.883 51.112 155.206 51.624C156.528 52.136 157.894 52.392 159.302 52.392C160.752 52.392 162.203 52.0293 163.654 51.304C165.104 50.536 165.83 49.6187 165.83 48.552C165.83 47.4427 165.275 46.5893 164.166 45.992C163.099 45.3947 161.798 44.9253 160.262 44.584C158.726 44.2 157.19 43.7733 155.654 43.304C154.118 42.8347 152.795 42.1307 151.686 41.192C150.619 40.2107 150.086 39.016 150.086 37.608C150.086 35.304 151.558 33.1067 154.502 31.016C157.446 28.8827 160.688 27.816 164.23 27.816C165.936 27.816 167.238 28.136 168.134 28.776C169.072 29.3733 169.542 30.1627 169.542 31.144C169.542 32.1253 169.243 32.9147 168.646 33.512C168.091 34.0667 167.515 34.344 166.918 34.344C166.363 34.344 165.424 34.088 164.102 33.576C162.779 33.064 161.392 32.808 159.942 32.808C158.534 32.808 157.296 33.1067 156.23 33.704C155.206 34.3013 154.694 35.0267 154.694 35.88C154.694 36.7333 155.504 37.48 157.126 38.12C158.79 38.76 160.603 39.272 162.566 39.656C164.528 40.04 166.32 40.808 167.942 41.96C169.606 43.0693 170.438 44.52 170.438 46.312C170.438 49.0853 168.816 51.624 165.574 53.928C162.331 56.232 158.832 57.384 155.078 57.384ZM200.694 48.872L200.566 57.832C200.566 62.0133 198.731 66.0027 195.062 69.8C191.393 73.64 187.297 75.56 182.774 75.56C180.513 75.56 178.55 74.92 176.886 73.64C175.222 72.36 174.39 70.9733 174.39 69.48C174.39 68.712 174.646 68.0293 175.158 67.432C175.713 66.8347 176.353 66.536 177.078 66.536C177.846 66.536 178.529 66.7493 179.126 67.176C179.766 67.6027 180.342 68.072 180.854 68.584C181.409 69.096 182.219 69.5653 183.286 69.992C184.395 70.4187 185.633 70.632 186.998 70.632C189.686 70.632 191.99 69.6293 193.91 67.624C195.83 65.6613 196.79 63.3147 196.79 60.584C196.79 56.8293 196.769 54.1627 196.726 52.584C194.763 55.784 192.31 57.384 189.366 57.384C186.934 57.384 184.993 56.5093 183.542 54.76C182.134 53.0107 181.153 50.8773 180.598 48.36L178.166 37.352C177.91 36.1147 177.334 35.0267 176.438 34.088C175.585 33.1067 175.158 32.1253 175.158 31.144C175.158 30.1627 175.499 29.3733 176.182 28.776C176.865 28.136 177.611 27.816 178.422 27.816C179.233 27.816 179.894 27.9653 180.406 28.264C180.918 28.5627 181.345 29.0107 181.686 29.608C182.155 30.504 182.518 31.592 182.774 32.872L185.59 46.248C186.059 48.3387 186.678 49.9387 187.446 51.048C188.257 52.1147 189.494 52.648 191.158 52.648C192.822 52.648 194.145 52.0293 195.126 50.792C196.15 49.512 196.662 47.9333 196.662 46.056L196.214 31.656C196.214 30.504 196.491 29.5867 197.046 28.904C197.643 28.1787 198.347 27.816 199.158 27.816C199.969 27.816 200.63 28.1573 201.142 28.84C201.654 29.48 201.91 30.376 201.91 31.528C201.91 32.6373 201.782 34.216 201.526 36.264C200.971 40.7013 200.694 44.904 200.694 48.872ZM259.692 16.872C258.455 16.872 257.58 16.8933 257.068 16.936C257.239 17.2773 257.324 17.64 257.324 18.024C257.324 18.408 257.239 19.9227 257.068 22.568C256.897 25.2133 256.791 28.1787 256.748 31.464C259.735 29.416 262.785 28.392 265.9 28.392C267.18 27.3253 267.82 25.7893 267.82 23.784C267.82 21.7787 267.095 20.136 265.644 18.856C264.236 17.5333 262.252 16.872 259.692 16.872ZM254.636 12.84L260.908 12.456C264.279 12.456 267.031 13.4373 269.164 15.4C271.297 17.32 272.364 19.5387 272.364 22.056C272.364 23.1653 272.044 24.36 271.404 25.64C270.764 26.8773 269.932 27.944 268.908 28.84C272.449 29.8213 275.137 31.5707 276.972 34.088C278.849 36.6053 279.788 39.336 279.788 42.28C279.788 46.248 278.231 49.768 275.116 52.84C272.001 55.8693 268.012 57.384 263.148 57.384H249.964C249.281 57.384 248.663 57.1707 248.108 56.744C247.596 56.2747 247.34 55.6773 247.34 54.952C247.34 54.2267 247.596 53.6507 248.108 53.224C248.663 52.7547 249.281 52.52 249.964 52.52H251.18C251.564 48.7227 251.756 44.2213 251.756 39.016C251.756 33.768 251.649 29.096 251.436 25C251.265 20.904 251.18 18.6427 251.18 18.216C251.18 17.7467 251.223 17.4267 251.308 17.256H249.964C249.281 17.256 248.663 17.0427 248.108 16.616C247.596 16.1467 247.34 15.5707 247.34 14.888C247.34 14.1627 247.596 13.5867 248.108 13.16C248.663 12.6907 249.281 12.456 249.964 12.456L254.636 12.84ZM257.324 52.776C260.14 53.3733 262.7 53.672 265.004 53.672C267.351 53.672 269.463 52.776 271.34 50.984C273.26 49.1493 274.22 46.568 274.22 43.24C274.22 39.912 273.217 37.352 271.212 35.56C269.207 33.768 266.753 32.872 263.852 32.872C260.993 32.872 258.625 33.448 256.748 34.6C256.748 37.1173 256.94 43.176 257.324 52.776ZM290.765 35.688C288.888 37.5653 287.949 39.8693 287.949 42.6C287.949 45.3307 288.888 47.656 290.765 49.576C292.685 51.4533 294.989 52.392 297.677 52.392C300.408 52.392 302.69 51.4533 304.525 49.576C306.36 47.656 307.277 45.3307 307.277 42.6C307.277 39.8693 306.36 37.5653 304.525 35.688C302.69 33.8107 300.408 32.872 297.677 32.872C294.989 32.872 292.685 33.8107 290.765 35.688ZM293.325 57.384C290.594 57.384 288.312 56.3173 286.477 54.184C284.642 52.0507 283.725 49.384 283.725 46.184C283.725 42.9413 284.728 39.8267 286.733 36.84C288.738 33.8107 291.085 31.5493 293.773 30.056C296.461 28.5627 299.17 27.816 301.901 27.816C304.632 27.816 306.914 28.8827 308.749 31.016C310.584 33.1493 311.501 35.8373 311.501 39.08C311.501 42.28 310.498 45.3947 308.493 48.424C306.488 51.4107 304.141 53.6507 301.453 55.144C298.765 56.6373 296.056 57.384 293.325 57.384ZM320.805 55.336C320.506 55.8053 320.058 56.2747 319.461 56.744C318.864 57.1707 318.224 57.384 317.541 57.384C316.858 57.384 316.261 57.1493 315.749 56.68C315.28 56.168 315.045 55.5493 315.045 54.824C315.045 54.056 315.344 53.3093 315.941 52.584C316.538 51.8587 317.413 51.0267 318.565 50.088C319.717 49.1067 320.613 48.2747 321.253 47.592C321.893 46.9093 323.322 45.1387 325.541 42.28C322.896 39.208 320.613 36.7333 318.693 34.856C316.773 32.9787 315.813 31.5067 315.813 30.44C315.813 29.7573 316.048 29.16 316.517 28.648C317.029 28.0933 317.669 27.816 318.437 27.816C319.717 27.816 320.912 28.5627 322.021 30.056C323.813 32.488 325.946 35.304 328.421 38.504C332.645 32.872 335.056 29.6933 335.653 28.968C336.293 28.2 336.976 27.816 337.701 27.816C339.109 27.816 339.813 28.52 339.813 29.928C339.813 30.8667 339.237 31.8267 338.085 32.808C336.165 34.5573 333.669 37.3947 330.597 41.32C334.224 46.0133 337.082 49.448 339.173 51.624C340.24 52.8187 340.773 53.8213 340.773 54.632C340.773 55.4 340.538 56.0613 340.069 56.616C339.642 57.128 339.088 57.384 338.405 57.384C337.125 57.384 335.802 56.2533 334.437 53.992C332.901 51.6027 330.682 48.616 327.781 45.032C325.946 47.592 324.41 49.832 323.173 51.752C321.936 53.672 321.146 54.8667 320.805 55.336Z" fill="#FAFAFA"/>
<g clip-path="url(#clip0_236_29)">
<path d="M224.749 13L220.912 16.837L220.912 42.8813L217.372 42.8813L215.037 41.7138C214.653 41.5214 214.202 41.6235 213.938 41.9613C213.674 42.2991 213.685 42.7619 213.964 43.088L216.945 46.5658L222.14 46.5658L222.14 55.554L220.96 56.7341C220.416 57.2786 220.416 58.1643 220.96 58.7088L223.761 61.5102C224.306 62.0546 225.192 62.0546 225.736 61.5102L228.537 58.7088C229.082 58.1643 229.082 57.2786 228.537 56.7341L227.052 55.2487L227.052 46.565L232.281 46.565L234.765 43.0867C235.013 42.7402 234.984 42.2795 234.695 41.9665C234.406 41.6534 233.95 41.5874 233.584 41.8067L231.794 42.8804L228.283 42.8804L228.435 16.6859L224.749 13ZM227.669 57.6025C227.735 57.668 227.735 57.7748 227.669 57.8404L224.868 60.6418C224.802 60.7074 224.695 60.7074 224.63 60.6418L221.828 57.8404C221.763 57.7748 221.763 57.668 221.828 57.6025L222.14 57.2907L224.63 54.8011C224.695 54.7355 224.802 54.7355 224.868 54.8011L227.052 56.9855L227.669 57.6025ZM225.824 54.0209L225.736 53.9327C225.192 53.3882 224.306 53.3882 223.761 53.9327L223.368 54.3261L223.368 46.5645L224.599 46.5645L225.824 46.5645L225.824 54.0209ZM232.819 43.6985L231.649 45.3375L227.053 45.3375L224.592 45.3375L217.511 45.3375L215.989 43.5626L217.084 44.1096L220.913 44.1096L224.582 44.1096L232.136 44.1096L232.819 43.6985ZM227.056 42.8804L224.605 42.8804L222.14 42.8804L222.14 17.3458L223.982 15.5036L223.982 41.0386C223.982 41.3782 224.257 41.6526 224.596 41.6526C224.766 41.6526 224.919 41.584 225.031 41.4728C225.142 41.3617 225.21 41.208 225.21 41.0386L225.21 15.1979L227.204 17.1917L227.056 42.8804Z" fill="#FAFAFA"/>
</g>
<defs>
<clipPath id="clip0_236_29">
<rect width="35" height="35" fill="white" transform="translate(249.497 37.7488) rotate(135)"/>
</clipPath>
</defs>
</svg>
